<svg width="19" height="17" viewBox="0 0 19 17" fill="none" xmlns="http://www.w3.org/2000/svg">
<g clip-path="url(#clip0_148_2196)">
<path d="M9.7712 12.4317L10.2003 12.0391L18.1865 4.73238C18.1973 4.72245 18.2211 4.70959 18.2573 4.70959C18.2819 4.70959 18.3008 4.7155 18.3137 4.7224L9.84212 12.4733C9.83126 12.4833 9.80747 12.4961 9.7712 12.4961C9.73501 12.4961 9.71124 12.4833 9.70035 12.4734L9.7712 12.4317ZM9.7712 12.4317L9.34208 12.0391L1.36222 4.73813C1.35028 4.72847 1.32721 4.71743 1.29377 4.71743C1.26931 4.71743 1.25038 4.72334 1.2373 4.7303L9.70028 12.4733L9.7712 12.4317Z" fill="#9EA9C3" stroke="#9DA8C3" stroke-width="1.27143"/>
</g>
<defs>
<clipPath id="clip0_148_2196">
<rect width="16.8144" height="18.3778" fill="white" transform="matrix(1.30337e-08 -1 -1 -1.09104e-08 18.9644 17.01)"/>
</clipPath>
</defs>
</svg>
