<svg width="151" height="152" viewBox="0 0 151 152" fill="none" xmlns="http://www.w3.org/2000/svg">
<mask id="mask0_22_509" style="mask-type:alpha" maskUnits="userSpaceOnUse" x="0" y="0" width="151" height="152">
<rect x="0.112732" y="0.450989" width="150.834" height="150.834" fill="#D9D9D9"/>
</mask>
<g mask="url(#mask0_22_509)">
<path d="M41.4821 32.3411L82.4951 73.354L75.5296 80.3194L42.5086 47.2984L41.5049 46.2947L40.5962 47.3852C37.3608 51.2676 34.8273 55.6081 32.9965 60.4005C31.1555 65.2195 30.2401 70.379 30.2401 75.8679C30.2401 88.3621 34.6712 99.0617 43.5035 107.894C52.3359 116.726 63.0355 121.157 75.5296 121.157C88.0238 121.157 98.7234 116.726 107.556 107.894C116.388 99.0617 120.819 88.3621 120.819 75.8679C120.819 64.3558 117.124 54.3846 109.732 46.021C102.349 37.669 93.0842 32.7268 81.989 31.2187L80.5181 31.0188V32.5031V43.1479H70.5412V20.6015H75.5296C83.1094 20.6015 90.2387 22.06 96.9305 24.9717C103.647 27.8941 109.507 31.8623 114.521 36.8764C119.535 41.8904 123.503 47.7505 126.426 54.467C129.338 61.1588 130.796 68.2881 130.796 75.8679C130.796 83.4477 129.338 90.577 126.426 97.2688C123.503 103.985 119.535 109.845 114.521 114.859C109.507 119.874 103.647 123.842 96.9305 126.764C90.2387 129.676 83.1094 131.134 75.5296 131.134C67.9499 131.134 60.8206 129.676 54.1288 126.764C47.4123 123.842 41.5522 119.874 36.5381 114.859C31.524 109.845 27.5559 103.985 24.6334 97.2688C21.7218 90.577 20.2632 83.4477 20.2632 75.8679C20.2632 71.3582 20.7755 66.9824 21.7983 62.7379C22.822 58.4895 24.3046 54.5039 26.2444 50.7775C28.1907 47.0385 30.5207 43.5563 33.2354 40.3294C35.7077 37.3906 38.4562 34.7281 41.4821 32.3411ZM44.1059 80.8564C42.6517 80.8564 41.4941 80.3787 40.5446 79.4292C39.5952 78.4797 39.1174 77.3221 39.1174 75.8679C39.1174 74.4137 39.5952 73.2561 40.5446 72.3066C41.4941 71.3571 42.6517 70.8794 44.1059 70.8794C45.5601 70.8794 46.7177 71.3571 47.6672 72.3066C48.6167 73.2561 49.0944 74.4137 49.0944 75.8679C49.0944 77.3221 48.6167 78.4797 47.6672 79.4292C46.7177 80.3787 45.5601 80.8564 44.1059 80.8564ZM75.5296 112.28C74.0754 112.28 72.9178 111.802 71.9684 110.853C71.0189 109.903 70.5412 108.746 70.5412 107.292C70.5412 105.837 71.0189 104.68 71.9684 103.73C72.9178 102.781 74.0754 102.303 75.5296 102.303C76.9839 102.303 78.1414 102.781 79.0909 103.73C80.0404 104.68 80.5181 105.837 80.5181 107.292C80.5181 108.746 80.0404 109.903 79.0909 110.853C78.1414 111.802 76.9839 112.28 75.5296 112.28ZM106.953 80.8564C105.499 80.8564 104.342 80.3787 103.392 79.4292C102.443 78.4797 101.965 77.3221 101.965 75.8679C101.965 74.4137 102.443 73.2561 103.392 72.3066C104.342 71.3571 105.499 70.8794 106.953 70.8794C108.408 70.8794 109.565 71.3572 110.515 72.3066C111.464 73.2561 111.942 74.4137 111.942 75.8679C111.942 77.3221 111.464 78.4797 110.515 79.4292C109.565 80.3787 108.408 80.8564 106.953 80.8564Z" fill="#1C1B1F" stroke="#FFFEFE" stroke-width="2.59256"/>
</g>
</svg>
