<svg width="143" height="144" viewBox="0 0 143 144" fill="none" xmlns="http://www.w3.org/2000/svg">
<path d="M53.8373 56.6707C53.4212 56.6707 53.0145 56.7941 52.6686 57.0252C52.3227 57.2564 52.053 57.5849 51.8938 57.9693C51.7346 58.3537 51.6929 58.7767 51.7741 59.1847C51.8553 59.5928 52.0556 59.9676 52.3498 60.2618C52.644 60.556 53.0188 60.7564 53.4269 60.8376C53.835 60.9187 54.2579 60.8771 54.6423 60.7179C55.0267 60.5586 55.3553 60.289 55.5864 59.9431C55.8176 59.5971 55.9409 59.1904 55.9409 58.7743C55.9407 58.2165 55.719 57.6816 55.3246 57.2871C54.9301 56.8926 54.3952 56.6709 53.8373 56.6707Z" fill="black"/>
<path d="M41.2149 23.0131C28.5019 23.0131 17.4447 33.2906 17.4447 46.1522V96.6389C17.4447 109.504 28.5061 119.778 41.2149 119.778C53.9042 119.778 64.9852 109.521 64.9852 96.6389V46.1522C64.9852 33.2867 53.9229 23.0131 41.2149 23.0131ZM60.7782 96.6389C60.7782 107.292 51.4567 115.571 41.2149 115.571C30.6106 115.571 21.6517 106.901 21.6517 96.6389V73.4997H60.7793L60.7782 96.6389ZM60.7782 69.2925H21.6519V46.1522C21.6519 35.8892 30.6109 27.2201 41.2152 27.2201C51.8195 27.2201 60.7785 35.8898 60.7785 46.1522L60.7782 69.2925Z" fill="black"/>
<path d="M46.1243 32.2682C45.8639 32.1759 45.5879 32.1359 45.312 32.1503C45.0361 32.1647 44.7657 32.2333 44.5164 32.3521C44.0127 32.5922 43.6251 33.0225 43.4387 33.5484C43.2524 34.0743 43.2826 34.6527 43.5227 35.1563C43.7628 35.66 44.1931 36.0476 44.719 36.234C46.7681 36.9618 48.542 38.3055 49.7976 40.0809C51.0531 41.8564 51.729 43.9766 51.7324 46.1511V50.3584C51.7324 50.9163 51.954 51.4514 52.3485 51.8459C52.743 52.2404 53.2781 52.4621 53.836 52.4621C54.3939 52.4621 54.929 52.2404 55.3235 51.8459C55.718 51.4514 55.9397 50.9163 55.9397 50.3584V46.1511C55.935 43.1074 54.9893 40.1395 53.2321 37.6542C51.4749 35.1688 48.9923 33.2876 46.1243 32.2682Z" fill="black"/>
<path d="M97.1703 64.4532C82.4212 64.4532 69.1928 76.9824 69.1928 92.4307C69.1928 107.518 82.0837 120.408 97.1703 120.408C112.199 120.408 125.148 107.635 125.148 92.4307C125.148 77.343 112.257 64.4532 97.1703 64.4532ZM97.1703 116.201C84.2858 116.201 73.4 105.316 73.4 92.4307C73.4298 86.8745 75.4393 81.5109 79.0676 77.3028L112.298 110.533C108.091 114.164 102.727 116.174 97.1703 116.201ZM115.273 107.558L82.0441 74.3294C86.3454 70.7038 91.7412 68.6602 97.1703 68.6602C110.055 68.6602 120.941 79.5456 120.941 92.4304C120.914 97.9872 118.904 103.352 115.273 107.558Z" fill="black"/>
</svg>
