<svg width="139" height="317" viewBox="0 0 139 317" fill="none" xmlns="http://www.w3.org/2000/svg">
<g opacity="0.4">
<mask id="path-1-outside-1_22_1730" maskUnits="userSpaceOnUse" x="-19" y="143.846" width="140" height="138" fill="black">
<rect fill="white" x="-19" y="143.846" width="140" height="138"/>
<path d="M38.5817 277.862V147.519H63.5791V277.862H38.5817ZM-15.5793 224.594V201.084H117.74V224.594H-15.5793Z"/>
</mask>
<path d="M38.5817 277.862V147.519H63.5791V277.862H38.5817ZM-15.5793 224.594V201.084H117.74V224.594H-15.5793Z" fill="black" fill-opacity="0.13"/>
<path d="M38.5817 277.862H35.4818V280.962H38.5817V277.862ZM38.5817 147.519V144.419H35.4818V147.519H38.5817ZM63.5791 147.519H66.679V144.419H63.5791V147.519ZM63.5791 277.862V280.962H66.679V277.862H63.5791ZM-15.5793 224.594H-18.6792V227.694H-15.5793V224.594ZM-15.5793 201.084V197.985H-18.6792V201.084H-15.5793ZM117.74 201.084H120.84V197.985H117.74V201.084ZM117.74 224.594V227.694H120.84V224.594H117.74ZM41.6816 277.862V147.519H35.4818V277.862H41.6816ZM38.5817 150.618H63.5791V144.419H38.5817V150.618ZM60.4792 147.519V277.862H66.679V147.519H60.4792ZM63.5791 274.762H38.5817V280.962H63.5791V274.762ZM-12.4794 224.594V201.084H-18.6792V224.594H-12.4794ZM-15.5793 204.184H117.74V197.985H-15.5793V204.184ZM114.64 201.084V224.594H120.84V201.084H114.64ZM117.74 221.494H-15.5793V227.694H117.74V221.494Z" fill="black" mask="url(#path-1-outside-1_22_1730)"/>
</g>
<g opacity="0.3" filter="url(#filter0_f_22_1730)">
<mask id="path-3-outside-2_22_1730" maskUnits="userSpaceOnUse" x="82.876" y="65.4817" width="40" height="40" fill="black">
<rect fill="white" x="82.876" y="65.4817" width="40" height="40"/>
<path d="M99.7716 101.736V69.1498H106.021V101.736H99.7716ZM86.2314 88.4186V82.5413H119.561V88.4186H86.2314Z"/>
</mask>
<path d="M99.7716 101.736V69.1498H106.021V101.736H99.7716ZM86.2314 88.4186V82.5413H119.561V88.4186H86.2314Z" fill="black" fill-opacity="0.13"/>
<path d="M99.7716 101.736H96.6718V104.836H99.7716V101.736ZM99.7716 69.1498V66.0499H96.6718V69.1498H99.7716ZM106.021 69.1498H109.121V66.0499H106.021V69.1498ZM106.021 101.736V104.836H109.121V101.736H106.021ZM86.2314 88.4186H83.1315V91.5185H86.2314V88.4186ZM86.2314 82.5413V79.4414H83.1315V82.5413H86.2314ZM119.561 82.5413H122.661V79.4414H119.561V82.5413ZM119.561 88.4186V91.5185H122.661V88.4186H119.561ZM102.872 101.736V69.1498H96.6718V101.736H102.872ZM99.7716 72.2497H106.021V66.0499H99.7716V72.2497ZM102.921 69.1498V101.736H109.121V69.1498H102.921ZM106.021 98.6358H99.7716V104.836H106.021V98.6358ZM89.3313 88.4186V82.5413H83.1315V88.4186H89.3313ZM86.2314 85.6411H119.561V79.4414H86.2314V85.6411ZM116.461 82.5413V88.4186H122.661V82.5413H116.461ZM119.561 85.3188H86.2314V91.5185H119.561V85.3188Z" fill="black" mask="url(#path-3-outside-2_22_1730)"/>
</g>
<g opacity="0.3" filter="url(#filter1_f_22_1730)">
<mask id="path-5-outside-3_22_1730" maskUnits="userSpaceOnUse" x="32.2295" y="46.3005" width="37" height="36" fill="black">
<rect fill="white" x="32.2295" y="46.3005" width="37" height="36"/>
<path d="M47.97 78.6374V49.6722H53.525V78.6374H47.97ZM35.9343 66.8V61.5757H65.5608V66.8H35.9343Z"/>
</mask>
<path d="M47.97 78.6374V49.6722H53.525V78.6374H47.97ZM35.9343 66.8V61.5757H65.5608V66.8H35.9343Z" fill="black" fill-opacity="0.13"/>
<path d="M47.97 78.6374H44.8702V81.7373H47.97V78.6374ZM47.97 49.6722V46.5723H44.8702V49.6722H47.97ZM53.525 49.6722H56.6249V46.5723H53.525V49.6722ZM53.525 78.6374V81.7373H56.6249V78.6374H53.525ZM35.9343 66.8H32.8344V69.8999H35.9343V66.8ZM35.9343 61.5757V58.4758H32.8344V61.5757H35.9343ZM65.5608 61.5757H68.6607V58.4758H65.5608V61.5757ZM65.5608 66.8V69.8999H68.6607V66.8H65.5608ZM51.0699 78.6374V49.6722H44.8702V78.6374H51.0699ZM47.97 52.7721H53.525V46.5723H47.97V52.7721ZM50.4251 49.6722V78.6374H56.6249V49.6722H50.4251ZM53.525 75.5375H47.97V81.7373H53.525V75.5375ZM39.0341 66.8V61.5757H32.8344V66.8H39.0341ZM35.9343 64.6756H65.5608V58.4758H35.9343V64.6756ZM62.4609 61.5757V66.8H68.6607V61.5757H62.4609ZM65.5608 63.7002H35.9343V69.8999H65.5608V63.7002Z" fill="black" mask="url(#path-5-outside-3_22_1730)"/>
</g>
<g opacity="0.4" filter="url(#filter2_f_22_1730)">
<path d="M110.889 35.7136V13.9897H115.056V35.7136H110.889ZM101.863 26.8356V22.9173H124.082V26.8356H101.863Z" fill="black"/>
</g>
<defs>
<filter id="filter0_f_22_1730" x="84.1649" y="67.0832" width="37.463" height="36.7191" filterUnits="userSpaceOnUse" color-interpolation-filters="sRGB">
<feFlood flood-opacity="0" result="BackgroundImageFix"/>
<feBlend mode="normal" in="SourceGraphic" in2="BackgroundImageFix" result="shape"/>
<feGaussianBlur stdDeviation="1.03329" result="effect1_foregroundBlur_22_1730"/>
</filter>
<filter id="filter1_f_22_1730" x="31.801" y="45.5391" width="37.8929" height="37.2315" filterUnits="userSpaceOnUse" color-interpolation-filters="sRGB">
<feFlood flood-opacity="0" result="BackgroundImageFix"/>
<feBlend mode="normal" in="SourceGraphic" in2="BackgroundImageFix" result="shape"/>
<feGaussianBlur stdDeviation="2.06658" result="effect1_foregroundBlur_22_1730"/>
</filter>
<filter id="filter2_f_22_1730" x="99.796" y="11.923" width="26.353" height="25.8572" filterUnits="userSpaceOnUse" color-interpolation-filters="sRGB">
<feFlood flood-opacity="0" result="BackgroundImageFix"/>
<feBlend mode="normal" in="SourceGraphic" in2="BackgroundImageFix" result="shape"/>
<feGaussianBlur stdDeviation="1.03329" result="effect1_foregroundBlur_22_1730"/>
</filter>
</defs>
</svg>
