<svg width="470" height="407" viewBox="0 0 470 407" fill="none" xmlns="http://www.w3.org/2000/svg">
<g opacity="0.4">
<mask id="path-1-outside-1_140_1329" maskUnits="userSpaceOnUse" x="60.5779" y="304" width="105" height="104" fill="black">
<rect fill="white" x="60.5779" y="304" width="105" height="104"/>
<path d="M103.691 404.733V306.88H122.458V404.733H103.691ZM63.0308 364.743V347.094H163.118V364.743H63.0308Z"/>
</mask>
<path d="M103.691 404.733V306.88H122.458V404.733H103.691ZM63.0308 364.743V347.094H163.118V364.743H63.0308Z" fill="black" fill-opacity="0.13"/>
<path d="M103.691 404.733H101.364V407.061H103.691V404.733ZM103.691 306.88V304.553H101.364V306.88H103.691ZM122.458 306.88H124.785V304.553H122.458V306.88ZM122.458 404.733V407.061H124.785V404.733H122.458ZM63.0308 364.743H60.7036V367.07H63.0308V364.743ZM63.0308 347.094V344.767H60.7036V347.094H63.0308ZM163.118 347.094H165.445V344.767H163.118V347.094ZM163.118 364.743V367.07H165.445V364.743H163.118ZM106.018 404.733V306.88H101.364V404.733H106.018ZM103.691 309.207H122.458V304.553H103.691V309.207ZM120.13 306.88V404.733H124.785V306.88H120.13ZM122.458 402.406H103.691V407.061H122.458V402.406ZM65.3579 364.743V347.094H60.7036V364.743H65.3579ZM63.0308 349.421H163.118V344.767H63.0308V349.421ZM160.791 347.094V364.743H165.445V347.094H160.791ZM163.118 362.416H63.0308V367.07H163.118V362.416Z" fill="black" mask="url(#path-1-outside-1_140_1329)"/>
</g>
<g opacity="0.3" filter="url(#filter0_f_140_1329)">
<mask id="path-3-outside-2_140_1329" maskUnits="userSpaceOnUse" x="38.2349" y="298.925" width="31" height="31" fill="black">
<rect fill="white" x="38.2349" y="298.925" width="31" height="31"/>
<path d="M51.3882 326.608V302.145H56.0798V326.608H51.3882ZM41.2231 316.611V312.199H66.2449V316.611H41.2231Z"/>
</mask>
<path d="M51.3882 326.608V302.145H56.0798V326.608H51.3882ZM41.2231 316.611V312.199H66.2449V316.611H41.2231Z" fill="black" fill-opacity="0.13"/>
<path d="M51.3882 326.608H49.061V328.936H51.3882V326.608ZM51.3882 302.145V299.818H49.061V302.145H51.3882ZM56.0798 302.145H58.407V299.818H56.0798V302.145ZM56.0798 326.608V328.936H58.407V326.608H56.0798ZM41.2231 316.611H38.8959V318.938H41.2231V316.611ZM41.2231 312.199V309.871H38.8959V312.199H41.2231ZM66.2449 312.199H68.5721V309.871H66.2449V312.199ZM66.2449 316.611V318.938H68.5721V316.611H66.2449ZM53.7154 326.608V302.145H49.061V326.608H53.7154ZM51.3882 304.472H56.0798V299.818H51.3882V304.472ZM53.7526 302.145V326.608H58.407V302.145H53.7526ZM56.0798 324.281H51.3882V328.936H56.0798V324.281ZM43.5503 316.611V312.199H38.8959V316.611H43.5503ZM41.2231 314.526H66.2449V309.871H41.2231V314.526ZM63.9177 312.199V316.611H68.5721V312.199H63.9177ZM66.2449 314.284H41.2231V318.938H66.2449V314.284Z" fill="black" mask="url(#path-3-outside-2_140_1329)"/>
</g>
<g opacity="0.3" filter="url(#filter1_f_140_1329)">
<mask id="path-5-outside-3_140_1329" maskUnits="userSpaceOnUse" x="1" y="286.605" width="27" height="27" fill="black">
<rect fill="white" x="1" y="286.605" width="27" height="27"/>
<path d="M12.4141 311.102V289.357H16.5844V311.102H12.4141ZM3.37842 302.215V298.293H25.62V302.215H3.37842Z"/>
</mask>
<path d="M12.4141 311.102V289.357H16.5844V311.102H12.4141ZM3.37842 302.215V298.293H25.62V302.215H3.37842Z" fill="black" fill-opacity="0.13"/>
<path d="M12.4141 311.102H10.0869V313.429H12.4141V311.102ZM12.4141 289.357V287.029H10.0869V289.357H12.4141ZM16.5844 289.357H18.9116V287.029H16.5844V289.357ZM16.5844 311.102V313.429H18.9116V311.102H16.5844ZM3.37842 302.215H1.05124V304.542H3.37842V302.215ZM3.37842 298.293V295.966H1.05124V298.293H3.37842ZM25.62 298.293H27.9472V295.966H25.62V298.293ZM25.62 302.215V304.542H27.9472V302.215H25.62ZM14.7413 311.102V289.357H10.0869V311.102H14.7413ZM12.4141 291.684H16.5844V287.029H12.4141V291.684ZM14.2572 289.357V311.102H18.9116V289.357H14.2572ZM16.5844 308.775H12.4141V313.429H16.5844V308.775ZM5.70559 302.215V298.293H1.05124V302.215H5.70559ZM3.37842 300.62H25.62V295.966H3.37842V300.62ZM23.2929 298.293V302.215H27.9472V298.293H23.2929ZM25.62 299.888H3.37842V304.542H25.62V299.888Z" fill="black" mask="url(#path-5-outside-3_140_1329)"/>
</g>
<g opacity="0.4" filter="url(#filter2_f_140_1329)">
<path d="M59.8577 282.245V265.936H62.9854V282.245H59.8577ZM53.0809 275.58V272.638H69.7621V275.58H53.0809Z" fill="black"/>
</g>
<path d="M187.329 80.2278C185.043 78.2833 180.73 79.45 177.063 82.7772C174.475 78.4561 170.722 76.1227 167.962 77.3326C165.201 78.5425 164.252 84.3329 166.668 89.8639C167.297 91.72 168.368 93.3944 169.788 94.7422C171.209 96.09 172.936 97.0705 174.82 97.5988C176.778 97.6597 178.721 97.2337 180.475 96.3591C182.229 95.4844 183.739 94.1882 184.871 92.5862C188.839 88.049 190.004 82.4748 187.329 80.2278Z" fill="#FFC5D2"/>
<path d="M193.498 43.3686C191.427 42.85 189.184 45.0106 187.89 48.3379C184.914 46.4798 181.722 46.2205 180.428 47.9058C179.134 49.591 180.428 53.5233 183.706 56.1592C184.6 57.2791 185.818 58.0931 187.194 58.4887C188.569 58.8843 190.033 58.8419 191.383 58.3673C192.733 57.8927 193.903 57.0094 194.73 55.8396C195.557 54.6699 196.001 53.2715 196 51.838C196.992 47.7329 195.87 43.9303 193.498 43.3686Z" fill="#FFC5D2"/>
<path d="M298.617 42.1587C300.386 47.5601 310.35 77.7649 292.234 92.6297C280.026 102.698 258.761 102.957 251.557 93.7532C243.664 83.5553 259.365 70.1165 256.345 42.1587C254.189 21.8061 240.04 10.6144 245.001 4.82403C248.753 0.502882 259.106 3.65732 262.859 4.82403C271.297 7.84912 278.92 12.7959 285.125 19.2747C291.33 25.7534 295.949 33.5872 298.617 42.1587Z" fill="#3F469A"/>
<path d="M263.764 79.9685C268.078 94.5308 283.089 142.063 256.69 177.67C235.123 206.664 196.301 214.097 191.988 208.22C190.737 206.535 190.435 201.479 186.165 199.059C184.439 198.065 183.922 198.584 182.585 197.504C179.479 194.997 181.334 191.238 178.53 187.349C176.675 184.756 175.338 185.664 172.965 183.028C170.516 180.109 169.24 176.381 169.385 172.571C169.644 165.484 176.157 163.367 180.557 156.798C189.788 143.1 176.244 130.872 184.871 116.05C190.996 105.334 200.054 109.136 204.152 98.7655C208.767 87.1416 199.838 76.6412 206.697 67.4372C209.026 64.4124 210.493 64.8877 213.814 62.079C227.704 50.3255 219.681 25.9542 225.245 23.664C230.809 21.3738 253.067 45.529 263.764 79.9685Z" fill="#3F469A"/>
<path d="M193.195 210.727C191.422 210.826 189.673 210.272 188.278 209.171C186.762 207.591 185.575 205.726 184.784 203.683C184.317 202.343 183.567 201.119 182.584 200.097C182.094 199.83 181.572 199.627 181.032 199.492C180.255 199.342 179.529 199 178.918 198.498C178.134 197.8 177.501 196.95 177.056 195.999C176.611 195.048 176.364 194.016 176.33 192.967C176.177 191.226 175.599 189.549 174.648 188.084C174.08 187.267 173.285 186.635 172.361 186.269C171.129 185.693 170.028 184.869 169.126 183.849C166.491 180.732 165.121 176.738 165.287 172.657C165.516 170.558 166.183 168.53 167.246 166.706C168.308 164.882 169.743 163.302 171.456 162.071C173.396 160.361 175.133 158.432 176.632 156.323C180.945 149.712 179.996 143.36 178.788 136.749C176.688 129.737 177.367 122.184 180.686 115.661C183.1 111.471 186.876 108.237 191.384 106.501C193.323 105.879 195.102 104.836 196.593 103.447C198.084 102.058 199.251 100.356 200.011 98.4633C201.54 93.6332 201.704 88.4732 200.485 83.5554C199.579 77.9811 198.674 72.1907 202.685 66.9189C203.225 66.2003 203.848 65.5477 204.54 64.9744C206.284 63.5134 208.195 62.2659 210.234 61.2583C211.657 60.5669 215.41 55.7704 224.512 31.0103L226.539 31.7448C216.877 57.9742 213.124 62.2521 211.097 63.1596C209.241 64.1255 207.491 65.2842 205.877 66.6165C205.315 67.0601 204.821 67.5842 204.411 68.1721C200.96 72.7093 201.736 77.549 202.599 83.1665C203.922 88.4738 203.713 94.0485 201.995 99.2411C201.144 101.372 199.844 103.293 198.184 104.874C196.524 106.455 194.543 107.658 192.376 108.402C188.273 109.967 184.832 112.896 182.628 116.699C178.702 123.526 179.824 129.662 180.988 136.317C182.153 142.971 183.447 150.144 178.53 157.49C176.85 159.782 174.91 161.87 172.75 163.713C171.244 164.758 169.978 166.111 169.034 167.682C168.089 169.254 167.489 171.009 167.271 172.83C167.157 176.348 168.322 179.788 170.55 182.51C171.265 183.323 172.148 183.971 173.138 184.411C174.373 184.942 175.435 185.81 176.2 186.917C177.382 188.634 178.096 190.63 178.271 192.707C178.273 193.512 178.434 194.308 178.745 195.05C179.056 195.791 179.511 196.464 180.083 197.029C180.458 197.334 180.902 197.542 181.377 197.634C182.116 197.807 182.827 198.083 183.49 198.455C184.943 199.633 186.023 201.209 186.596 202.992C187.247 204.757 188.244 206.373 189.529 207.745C191.255 209.214 194.49 209.171 199.234 207.745L199.925 209.776C197.747 210.454 195.475 210.775 193.195 210.727Z" fill="#3F469A"/>
<path d="M318.114 190.417L338.948 183.287C341.009 165.452 341.182 147.448 339.466 129.575C338.661 121.308 337.554 113.587 336.145 106.414C332.737 93.4507 322.644 87.4443 317.295 89.1296C311.946 90.8148 309.099 99.5867 311.256 109.741L318.114 190.417Z" fill="#FF8C64"/>
<path d="M320.487 233.24C326.224 244.258 312.291 268.154 308.236 274.809C297.364 280.484 285.254 283.364 272.995 283.192C240.903 282.587 220.586 260.333 216.92 255.969C219.591 253.347 221.846 250.33 223.606 247.024C228.307 237.863 231.499 221.616 232.664 218.98L234.346 215.35C239.652 203.251 236.503 191.584 234.346 175.25C233.656 169.762 233.095 163.928 232.578 157.965C231.499 145.391 230.68 132.686 229.084 122.575V121.927C228.699 119.295 228.181 116.685 227.531 114.106C227.315 112.982 227.143 111.902 227.013 110.821C226.884 109.741 227.013 109.871 227.013 109.396C226.604 105.925 226.735 102.412 227.402 98.9816C227.779 98.225 228.242 97.5146 228.782 96.8642C234.044 90.1664 243.922 90.8146 252.204 85.1107L253.541 84.16L253.886 83.8576C259.379 83.2972 264.914 83.2972 270.407 83.8576C289.688 85.3267 289.602 91.6356 302.931 89.9504C310.781 88.9997 315.354 88.2651 320.444 91.2899C322.126 92.2406 327.431 95.1358 329.804 106.414C329.783 106.528 329.783 106.645 329.804 106.76C324.455 121.365 320.444 133.724 317.64 142.928C316.173 147.71 314.879 152.16 313.758 156.28C310.738 166.78 308.754 175.293 307.503 182.207C303.837 201.695 305.864 208.479 308.021 213.103C310.142 217.254 312.764 221.129 315.828 224.64C317.57 227.4 319.126 230.273 320.487 233.24Z" fill="#FF8C64"/>
<path d="M254.706 139.73C254.703 143.662 253.476 147.494 251.195 150.694C248.914 153.893 245.693 156.299 241.981 157.576C240.009 158.253 237.94 158.603 235.856 158.614C234.697 158.61 233.542 158.494 232.405 158.268C228.458 157.534 224.848 155.557 222.1 152.625C219.353 149.693 217.611 145.958 217.13 141.965C216.649 137.973 217.452 133.93 219.424 130.427C221.396 126.924 224.432 124.143 228.092 122.489L228.739 122.229C231.598 121.078 234.695 120.646 237.759 120.972C240.824 121.298 243.762 122.372 246.316 124.099C248.87 125.826 250.962 128.154 252.41 130.879C253.858 133.604 254.616 136.643 254.62 139.73H254.706Z" fill="#FF8C64"/>
<path d="M270.019 131.995C270.019 134.985 270.906 137.908 272.568 140.391C274.23 142.875 276.592 144.808 279.353 145.944C282.113 147.08 285.149 147.368 288.074 146.772C290.999 146.176 293.681 144.723 295.779 142.596C297.877 140.47 299.297 137.767 299.859 134.83C300.42 131.893 300.097 128.856 298.931 126.103C297.765 123.351 295.809 121.008 293.311 119.371C290.812 117.735 287.885 116.88 284.9 116.914C280.934 116.949 277.143 118.554 274.354 121.38C271.566 124.205 270.007 128.022 270.019 131.995Z" fill="#FF8C64"/>
<path d="M329.373 106.587C283.607 108.315 265.878 103.044 234.174 109.439C232.923 109.698 230.249 110.26 226.755 111.124C225.411 108.124 225.137 104.753 225.978 101.574C226.193 100.773 226.512 100.003 226.927 99.2842C227.304 98.5368 227.752 97.8277 228.265 97.1668C233.57 90.469 243.448 91.1172 251.687 85.4133L253.024 84.4627L253.412 84.1602C254.621 83.1068 255.617 81.8305 256.345 80.4008C258.768 75.0773 259.031 69.0191 257.079 63.5051C256.151 60.9498 254.778 58.5797 253.024 56.5048L263.721 50.0231L275.152 40.8623C276.705 44.9674 278.991 50.7577 282.011 57.6716C288.395 72.277 291.802 79.5365 295.814 82.691C307.374 91.7654 321.177 84.5059 327.475 93.321C329.835 97.3171 330.518 102.088 329.373 106.587Z" fill="#FF8C64"/>
<path d="M271.701 89.2592C271.364 89.9351 270.813 90.4799 270.134 90.8083C269.455 91.1367 268.687 91.2302 267.949 91.0741C267.278 90.8078 266.679 90.3877 266.199 89.8473C265.72 89.307 265.373 88.6616 265.188 87.9629L271.701 89.2592Z" fill="#EA522F"/>
<path d="M263.765 93.7101C263.188 94.1488 262.566 94.5254 261.91 94.8336C259.859 95.7685 257.571 96.0549 255.353 95.6546C251.001 95.0884 246.682 94.2951 242.413 93.278L254.75 93.9261L263.765 93.7101Z" fill="#EA522F"/>
<path d="M271.701 93.7101C272.626 94.1436 273.577 94.5189 274.548 94.8336C277.781 95.7772 281.17 96.0565 284.513 95.6546C293.139 94.92 301.249 93.7101 303.966 93.278L285.246 93.9261L271.701 93.7101Z" fill="#EA522F"/>
<path d="M248.969 250.956C275.65 250.956 297.28 229.288 297.28 202.559C297.28 175.831 275.65 154.163 248.969 154.163C222.287 154.163 200.658 175.831 200.658 202.559C200.658 229.288 222.287 250.956 248.969 250.956Z" fill="#FF8C64"/>
<path d="M268.552 74.9563C267.802 77.2325 266.184 79.1189 264.05 80.2038C261.917 81.2886 259.442 81.4838 257.165 80.7467L256.345 80.401C258.768 75.0775 259.031 69.0193 257.078 63.5053C259.121 62.5406 261.459 62.4165 263.592 63.1596C265.807 64.0699 267.573 65.8219 268.502 68.0325C269.432 70.2431 269.45 72.7325 268.552 74.9563Z" fill="#EA522F"/>
<path d="M279.163 52.3997C276.605 60.4186 271.834 67.5491 265.403 72.9683C264.41 73.7597 263.305 74.4004 262.125 74.8696C260.924 75.3685 259.662 75.7028 258.372 75.8635C252.851 76.5981 244.44 70.462 243.706 69.9435C239.925 67.5934 236.784 64.3423 234.562 60.4802C232.879 57.1097 233.181 55.338 230.637 49.8502C229.256 46.955 228.393 45.529 227.315 43.8006V43.5413C226.927 42.8499 226.495 42.0721 226.064 41.2079C225.596 40.3843 225.178 39.5329 224.813 38.6584C222.026 33.4917 221.227 27.4798 222.57 21.7627C224.292 17.1615 227.284 13.1453 231.197 10.1821C232.476 9.19185 233.816 8.28264 235.209 7.45976L236.762 6.59553C240.788 4.54503 245.187 3.3311 249.694 3.02664C254.201 2.72219 258.723 3.3335 262.988 4.82386C280.242 12.4723 283.391 37.6646 279.163 52.3997Z" fill="#FF8C64"/>
<path d="M264.411 38.0967C263.176 40.1945 261.279 41.8211 259.019 42.7203C257.812 43.1956 255.051 44.2759 253.455 42.7203C253.076 42.3638 252.782 41.926 252.595 41.4397C252.408 40.9533 252.333 40.4309 252.377 39.9116C252.477 38.9862 252.906 38.1276 253.584 37.4917C254.651 36.4036 256.027 35.6706 257.524 35.3923C259.021 35.114 260.567 35.3039 261.953 35.9361C262.929 36.454 263.772 37.194 264.411 38.0967Z" fill="#EA522F"/>
<path d="M255.267 44.3624C254.578 44.4266 253.885 44.4266 253.196 44.3624C253.044 44.3558 252.895 44.3169 252.759 44.2484C252.623 44.1799 252.503 44.0832 252.406 43.9648C252.31 43.8464 252.24 43.7089 252.201 43.5614C252.162 43.4139 252.154 43.2597 252.179 43.109C252.203 42.9584 252.259 42.8147 252.343 42.6873C252.427 42.56 252.537 42.4519 252.666 42.3703C252.795 42.2887 252.94 42.2353 253.09 42.2137C253.241 42.1921 253.395 42.2028 253.541 42.245C255.066 42.5061 256.629 42.4175 258.114 41.9858C260.802 41.1968 263.105 39.443 264.584 37.0597C264.662 36.9394 264.764 36.836 264.883 36.7555C265.001 36.6751 265.135 36.6191 265.275 36.5909C265.416 36.5628 265.561 36.563 265.701 36.5915C265.842 36.62 265.975 36.6764 266.094 36.7572C266.212 36.8316 266.315 36.9293 266.395 37.0444C266.474 37.1596 266.53 37.2897 266.558 37.4271C266.587 37.5644 266.587 37.706 266.559 37.8434C266.531 37.9808 266.475 38.1111 266.396 38.2264C264.626 41.0565 261.877 43.1335 258.675 44.0599C257.56 44.3314 256.411 44.4334 255.267 44.3624Z" fill="#122275"/>
<path d="M231.801 52.054C233.776 52.5016 235.835 52.397 237.754 51.7515C238.746 51.4058 242.068 50.3255 242.068 48.2946C242.044 47.7713 241.9 47.2606 241.645 46.803C241.391 46.3455 241.033 45.9537 240.601 45.6587C240.126 45.323 239.579 45.1012 239.005 45.0105C236.46 44.5352 231.413 45.7019 230.852 48.7699C230.779 49.3532 230.826 49.9453 230.989 50.5099C231.152 51.0746 231.429 51.6 231.801 52.054Z" fill="#EA522F"/>
<path d="M233.484 53.6531C232.022 53.6498 230.569 53.4314 229.17 53.0049C228.896 52.919 228.666 52.7273 228.533 52.472C228.399 52.2167 228.373 51.9188 228.459 51.6438C228.544 51.3687 228.736 51.1391 228.991 51.0054C229.245 50.8717 229.543 50.8448 229.817 50.9308C232.49 51.8106 235.393 51.6721 237.97 50.5419C239.364 49.8937 240.612 48.9673 241.636 47.8196C241.733 47.7162 241.85 47.6338 241.98 47.5775C242.11 47.5212 242.25 47.4922 242.391 47.4922C242.533 47.4922 242.673 47.5212 242.802 47.5775C242.932 47.6338 243.049 47.7162 243.146 47.8196C243.344 48.0215 243.454 48.293 243.454 48.5758C243.454 48.8585 243.344 49.13 243.146 49.332C241.943 50.7318 240.444 51.8459 238.758 52.5933C237.072 53.3407 235.241 53.7027 233.397 53.6531H233.484Z" fill="#122275"/>
<path d="M265.274 28.9793C262.171 29.2697 259.115 29.9372 256.173 30.967C253.628 31.8808 251.197 33.0842 248.926 34.5535C248.772 34.0765 248.67 33.5838 248.624 33.0844C248.573 31.9799 248.749 30.8766 249.142 29.8435C251.601 29.0225 253.671 28.4175 255.224 28.0286C257.016 27.4306 258.9 27.1528 260.788 27.2076C262.417 27.377 263.969 27.9897 265.274 28.9793Z" fill="#122275"/>
<path d="M247.762 30.2322C247.683 30.8635 247.683 31.5021 247.762 32.1335C247.698 33.0445 247.925 33.9521 248.41 34.7262C248.481 34.0222 248.481 33.3128 248.41 32.6088C248.303 31.8781 248.303 31.1357 248.41 30.405C248.378 30.2336 248.378 30.0579 248.41 29.8865L247.762 30.2322Z" fill="#122275"/>
<path d="M236.374 40.6893C233.712 41.2037 231.121 42.0305 228.652 43.1524L227.315 43.8006V43.5413C226.927 42.8499 226.496 42.0721 226.064 41.2079L227.531 40.3437C228.911 39.6091 230.766 38.572 233.138 37.4917C234.146 37.9194 235.035 38.5868 235.727 39.4362C235.989 39.8278 236.206 40.2483 236.374 40.6893Z" fill="#122275"/>
<path d="M234.26 36.8004C234.79 37.1497 235.269 37.5715 235.683 38.0536C236.33 38.6801 236.792 39.4722 237.021 40.3438C237.021 40.3438 235.813 39.2203 235.511 38.8314C235.061 38.2487 234.54 37.7259 233.958 37.2757L233.527 36.9733L234.26 36.8004Z" fill="#122275"/>
<path d="M248.926 52.6589C248.015 52.6146 247.108 52.8082 246.295 53.2207C245.448 53.5757 244.716 54.1591 244.181 54.9059C245.092 54.9261 245.995 54.7336 246.818 54.3436C247.642 53.9536 248.364 53.3768 248.926 52.6589Z" fill="#EA522F"/>
<path d="M246.467 63.5052C246.328 63.5111 246.188 63.4885 246.058 63.439C245.927 63.3895 245.808 63.3141 245.707 63.2172C245.606 63.1203 245.526 63.004 245.471 62.8753C245.417 62.7465 245.389 62.6081 245.389 62.4682C245.388 62.1846 245.494 61.9112 245.686 61.7028C245.878 61.4944 246.142 61.3665 246.424 61.3447C249.087 61.316 251.705 60.6492 254.059 59.4001C256.125 58.3325 257.957 56.8636 259.451 55.079C259.541 54.9683 259.653 54.8767 259.779 54.8092C259.905 54.7417 260.043 54.6997 260.185 54.6857C260.327 54.6716 260.471 54.6858 260.608 54.7273C260.744 54.7689 260.871 54.837 260.982 54.9278C261.092 55.0186 261.184 55.1303 261.251 55.2565C261.319 55.3827 261.361 55.521 261.375 55.6634C261.389 55.8059 261.374 55.9497 261.333 56.0867C261.292 56.2237 261.224 56.3511 261.133 56.4618C259.454 58.4943 257.386 60.1693 255.051 61.3879C252.38 62.7656 249.427 63.5051 246.424 63.5484L246.467 63.5052Z" fill="#EA522F"/>
<path d="M247.546 63.2028C248.02 64.0238 251.169 63.2028 253.887 62.0361C256.604 60.8694 259.71 58.9681 259.365 57.715C259.365 57.715 258.761 57.3693 257.769 57.0668C253.714 55.9433 253.067 55.7704 252.463 56.1161C252.023 56.4342 251.545 56.6955 251.04 56.8939H250.479C249.401 57.1964 249.271 56.8939 248.883 57.2828C248.392 58.0879 248.069 58.9847 247.934 59.9187C247.808 60.3152 247.707 60.7193 247.632 61.1287C247.503 62.4682 247.417 62.9436 247.546 63.2028Z" fill="#EA522F"/>
<path d="M253.498 66.5298C253.245 66.5117 253.006 66.4048 252.824 66.2277C252.642 66.0507 252.528 65.8149 252.502 65.562C252.476 65.309 252.541 65.055 252.683 64.8448C252.826 64.6345 253.038 64.4814 253.283 64.4125L254.922 63.8939C256.131 63.3739 257.229 62.6257 258.157 61.6902C258.358 61.4922 258.629 61.3813 258.912 61.3813C259.194 61.3813 259.465 61.4922 259.667 61.6902C259.771 61.7909 259.854 61.9117 259.911 62.0454C259.967 62.179 259.997 62.3228 259.997 62.468C259.997 62.6132 259.967 62.7569 259.911 62.8905C259.854 63.0242 259.771 63.145 259.667 63.2458C258.557 64.4014 257.221 65.3136 255.741 65.9249C255.095 66.1861 254.432 66.4027 253.757 66.5731L253.498 66.5298Z" fill="#EA522F"/>
<path d="M251.644 130.267C250.867 130.267 250.479 129.575 250.608 129.014L251.6 123.396C251.653 123.116 251.814 122.868 252.048 122.706C252.282 122.544 252.571 122.481 252.851 122.532C253.131 122.584 253.379 122.746 253.54 122.98C253.702 123.215 253.764 123.504 253.714 123.785L252.722 129.359C252.681 129.615 252.549 129.847 252.351 130.014C252.153 130.18 251.902 130.27 251.644 130.267Z" fill="#EA522F"/>
<path d="M252.161 124.304C251.978 124.306 251.797 124.258 251.638 124.167C251.479 124.076 251.347 123.944 251.255 123.785L249.098 120.372C249.013 120.253 248.952 120.117 248.921 119.974C248.889 119.831 248.887 119.683 248.914 119.539C248.941 119.395 248.998 119.258 249.08 119.136C249.161 119.014 249.267 118.911 249.39 118.831C249.513 118.752 249.651 118.699 249.796 118.675C249.94 118.651 250.088 118.656 250.23 118.691C250.373 118.726 250.506 118.79 250.623 118.878C250.74 118.966 250.838 119.078 250.91 119.205L253.067 122.662C253.212 122.903 253.257 123.192 253.193 123.467C253.128 123.741 252.959 123.98 252.722 124.131C252.558 124.247 252.361 124.307 252.161 124.304Z" fill="#EA522F"/>
<path d="M252.679 124.822C252.412 124.822 252.153 124.731 251.945 124.563C251.745 124.354 251.633 124.075 251.633 123.785C251.633 123.495 251.745 123.216 251.945 123.007L255.655 118.686C255.752 118.583 255.869 118.5 255.999 118.444C256.128 118.388 256.268 118.359 256.41 118.359C256.551 118.359 256.691 118.388 256.821 118.444C256.951 118.5 257.068 118.583 257.165 118.686C257.269 118.787 257.352 118.908 257.409 119.041C257.466 119.175 257.495 119.319 257.495 119.464C257.495 119.609 257.466 119.753 257.409 119.886C257.352 120.02 257.269 120.141 257.165 120.242L253.412 124.563C253.317 124.658 253.201 124.73 253.075 124.775C252.948 124.82 252.813 124.836 252.679 124.822Z" fill="#EA522F"/>
<path d="M313.326 156.193C310.307 166.694 308.323 175.206 307.072 182.12C291.864 168.523 272.808 160.006 252.549 157.749C249.079 157.432 245.595 157.302 242.111 157.36C238.703 157.36 235.511 157.706 232.535 158.052C228.034 157.711 223.819 155.712 220.704 152.44C217.589 149.167 215.795 144.855 215.669 140.335C215.758 136.583 216.992 132.949 219.206 129.921C221.451 126.616 224.553 123.987 228.178 122.316L228.911 122.661C233.519 124.952 238.385 126.679 243.405 127.804C246.116 128.407 248.871 128.797 251.643 128.97C257.924 129.366 264.228 129.091 270.45 128.149C272.82 128.013 275.173 127.666 277.481 127.112C279.944 126.319 282.272 125.153 284.383 123.655L313.326 156.193Z" fill="#FFC5D2"/>
<path d="M228.825 124.822C228.527 124.884 228.218 124.884 227.92 124.822C227.397 124.578 226.991 124.137 226.789 123.596C226.587 123.054 226.606 122.455 226.841 121.927L241.938 88.4813C242.174 87.9606 242.606 87.5546 243.139 87.3521C243.673 87.1497 244.265 87.1672 244.785 87.4011C245.058 87.5019 245.308 87.656 245.521 87.8543C245.734 88.0527 245.906 88.2914 246.026 88.5566C246.147 88.8218 246.213 89.1083 246.222 89.3995C246.232 89.6907 246.183 89.9808 246.079 90.253L230.982 123.699C230.782 124.086 230.467 124.401 230.081 124.602C229.695 124.803 229.257 124.88 228.825 124.822Z" fill="#FFC5D2"/>
<path d="M282.097 130.137C281.769 130.202 281.432 130.202 281.104 130.137C280.601 129.862 280.224 129.401 280.055 128.853C279.886 128.304 279.937 127.71 280.199 127.199L302.154 85.2406C302.262 84.9552 302.43 84.696 302.645 84.4801C302.861 84.2642 303.12 84.0965 303.405 83.9881C303.689 83.8797 303.994 83.833 304.298 83.8511C304.602 83.8692 304.899 83.9517 305.17 84.0931C305.44 84.2346 305.677 84.4317 305.865 84.6716C306.054 84.9116 306.189 85.1888 306.263 85.485C306.337 85.7812 306.347 86.0898 306.293 86.3902C306.239 86.6907 306.122 86.9763 305.95 87.2283L283.994 129.143C283.799 129.467 283.518 129.73 283.184 129.905C282.849 130.08 282.473 130.161 282.097 130.137Z" fill="#FFC5D2"/>
<path d="M244.57 234.666L248.883 242.012C273.074 236.741 296.061 226.964 316.648 213.19C322.085 209.46 327.326 205.45 332.349 201.177C333.996 200.487 335.483 199.463 336.716 198.169C337.949 196.875 338.901 195.34 339.513 193.66C340.124 191.979 340.382 190.19 340.271 188.405C340.159 186.62 339.679 184.878 338.863 183.287C337.679 181.967 336.237 180.904 334.627 180.164C333.016 179.425 331.271 179.025 329.5 178.988C327.729 178.952 325.969 179.28 324.33 179.953C322.69 180.625 321.206 181.628 319.97 182.899C315.193 184.911 310.553 187.235 306.08 189.856C283.262 203.338 277.697 217.424 255.224 229.61C251.773 231.5 248.215 233.188 244.57 234.666Z" fill="#FF8C64"/>
<path d="M249.444 233.629C249.21 233.612 248.988 233.52 248.812 233.366C248.635 233.212 248.513 233.005 248.465 232.776C248.416 232.546 248.443 232.308 248.542 232.095C248.641 231.882 248.806 231.708 249.012 231.598C250.953 230.69 252.894 229.696 254.792 228.659C264.342 223.37 273.062 216.702 280.673 208.868C288.21 201.222 296.656 194.532 305.821 188.948L306.425 188.602C306.668 188.492 306.944 188.476 307.198 188.558C307.452 188.639 307.667 188.812 307.801 189.044C307.935 189.275 307.979 189.548 307.924 189.809C307.869 190.071 307.719 190.303 307.503 190.46L306.899 190.806C297.89 196.308 289.589 202.896 282.183 210.424C274.505 218.386 265.697 225.172 256.043 230.561C254.102 231.598 252.118 232.635 250.134 233.542L249.444 233.629Z" fill="#EA522F"/>
<path d="M253.8 241.882C253.514 241.916 253.226 241.835 253 241.657C252.773 241.479 252.627 241.218 252.592 240.931C252.558 240.645 252.639 240.356 252.817 240.129C252.994 239.902 253.255 239.756 253.541 239.721C273.485 234.862 292.54 226.885 310.005 216.085C310.126 216.006 310.262 215.952 310.404 215.927C310.546 215.901 310.692 215.905 310.833 215.937C310.973 215.97 311.106 216.03 311.224 216.115C311.341 216.199 311.44 216.307 311.515 216.43C311.649 216.674 311.689 216.96 311.625 217.232C311.561 217.503 311.399 217.741 311.169 217.9C293.498 228.819 274.227 236.897 254.059 241.839L253.8 241.882Z" fill="#EA522F"/>
<path d="M248.322 233.369C238.948 226.674 228.462 221.699 217.351 218.677C217.054 218.809 216.786 218.999 216.563 219.237C216.341 219.474 216.169 219.754 216.057 220.06C215.832 220.614 215.832 221.235 216.057 221.789C214.355 220.45 212.895 218.828 211.744 216.992C210.363 214.788 208.638 213.751 207.905 214.14C207.171 214.529 207.128 216.56 208.25 218.894C207.964 219.094 207.716 219.342 207.516 219.628C207.092 220.354 206.841 221.169 206.781 222.008C206.721 222.847 206.855 223.689 207.171 224.468C207.105 225.287 207.105 226.111 207.171 226.931C207.277 230.883 208.67 234.693 211.14 237.777L204.842 235.141C203.332 235.141 202.815 235.141 202.685 235.444C202.081 236.913 211.053 244.086 221.665 245.728C227.46 246.168 233.288 245.658 238.919 244.215C243.589 243.403 248.211 242.336 252.765 241.018C251.341 238.468 249.832 235.919 248.322 233.369Z" fill="#FF8C64"/>
<path d="M225.331 247.067C224.033 247.067 222.736 246.98 221.449 246.808C213.963 245.768 207.055 242.201 201.866 236.697C201.709 236.457 201.608 236.185 201.57 235.9C201.533 235.616 201.56 235.327 201.65 235.055C202.168 233.801 204.023 233.974 204.928 234.061H205.23L208.293 235.357C206.835 232.708 206.05 229.74 206.007 226.715C205.943 225.909 205.943 225.1 206.007 224.295C205.652 223.388 205.517 222.409 205.615 221.44C205.713 220.471 206.039 219.538 206.568 218.721L206.869 218.332C206.007 216.128 205.921 213.708 207.301 212.93C208.681 212.152 211.14 213.924 212.563 216.171C213.258 217.237 214.068 218.222 214.979 219.109C215.347 218.338 215.995 217.735 216.79 217.424C217.001 217.361 217.226 217.361 217.437 217.424C225.695 219.671 233.626 222.983 241.032 227.276C243.664 228.789 246.295 230.474 248.797 232.246C248.915 232.327 249.015 232.432 249.091 232.554C249.166 232.676 249.216 232.812 249.236 232.955C249.256 233.097 249.247 233.242 249.208 233.38C249.17 233.518 249.103 233.647 249.012 233.758C248.939 233.879 248.841 233.982 248.725 234.062C248.608 234.141 248.476 234.195 248.338 234.22C248.199 234.244 248.056 234.239 247.92 234.204C247.783 234.169 247.656 234.106 247.546 234.017C245.087 232.289 242.542 230.647 239.954 229.135C232.846 225.001 225.234 221.806 217.308 219.628C217.111 219.757 216.971 219.959 216.92 220.19C216.92 220.449 216.92 220.838 216.92 221.14C217.026 221.351 217.055 221.593 216.999 221.823C216.944 222.052 216.809 222.255 216.618 222.394C216.431 222.552 216.194 222.639 215.949 222.639C215.705 222.639 215.468 222.552 215.281 222.394C213.454 220.984 211.879 219.275 210.622 217.338C210.079 216.346 209.273 215.523 208.293 214.961C208.233 216.084 208.471 217.202 208.983 218.202C209.1 218.429 209.13 218.691 209.066 218.938C209.002 219.185 208.85 219.4 208.638 219.542L208.163 220.017C207.86 220.62 207.702 221.286 207.702 221.961C207.702 222.637 207.86 223.303 208.163 223.906C208.206 224.062 208.206 224.226 208.163 224.381C208.119 225.144 208.119 225.909 208.163 226.672C208.3 230.392 209.631 233.968 211.959 236.869C212.103 237.063 212.181 237.298 212.181 237.539C212.181 237.78 212.103 238.015 211.959 238.209C211.813 238.403 211.604 238.54 211.367 238.596C211.131 238.651 210.882 238.621 210.665 238.511L204.54 235.962H204.152C209.032 240.529 215.158 243.537 221.751 244.604C227.384 245.057 233.054 244.575 238.531 243.178H238.876C242.99 242.491 247.066 241.582 251.083 240.456C251.222 240.417 251.367 240.406 251.51 240.424C251.653 240.443 251.791 240.489 251.915 240.562C252.04 240.634 252.149 240.731 252.236 240.847C252.322 240.962 252.385 241.094 252.42 241.234C252.459 241.37 252.469 241.513 252.45 241.653C252.432 241.794 252.384 241.929 252.312 242.05C252.239 242.172 252.142 242.277 252.027 242.359C251.912 242.442 251.782 242.5 251.644 242.53C247.589 243.654 243.405 244.604 239.221 245.339H238.876C234.417 246.294 229.886 246.872 225.331 247.067Z" fill="#EA522F"/>
<path d="M228.825 230.82H228.394C226.365 230.009 224.415 229.011 222.571 227.838C220.128 226.355 217.882 224.569 215.885 222.523C215.729 222.315 215.653 222.058 215.672 221.798C215.69 221.539 215.801 221.295 215.985 221.111C216.168 220.927 216.412 220.816 216.671 220.797C216.93 220.779 217.187 220.855 217.394 221.011C219.218 222.861 221.243 224.499 223.433 225.894C225.181 227.014 227.03 227.969 228.955 228.746C229.087 228.793 229.209 228.867 229.312 228.964C229.415 229.06 229.498 229.177 229.554 229.306C229.611 229.436 229.64 229.576 229.641 229.717C229.642 229.858 229.614 229.998 229.558 230.128C229.502 230.295 229.405 230.445 229.277 230.565C229.15 230.686 228.994 230.773 228.825 230.82Z" fill="#EA522F"/>
<path d="M216.704 234.536C216.522 234.533 216.343 234.484 216.185 234.394C216.026 234.303 215.893 234.173 215.798 234.017L207.258 219.887C207.184 219.765 207.135 219.63 207.114 219.489C207.092 219.348 207.099 219.204 207.133 219.066C207.167 218.927 207.228 218.797 207.312 218.682C207.396 218.567 207.503 218.47 207.624 218.396C207.746 218.323 207.881 218.274 208.022 218.252C208.163 218.231 208.306 218.237 208.444 218.271C208.583 218.305 208.713 218.366 208.827 218.451C208.942 218.535 209.039 218.642 209.112 218.764L217.739 233.067C217.881 233.313 217.92 233.606 217.847 233.881C217.774 234.156 217.596 234.392 217.351 234.536C217.144 234.62 216.912 234.62 216.704 234.536Z" fill="#EA522F"/>
<path d="M221.363 235.66H221.104L216.489 234.536C216.35 234.505 216.218 234.448 216.102 234.366C215.985 234.284 215.886 234.18 215.809 234.059C215.733 233.938 215.682 233.804 215.658 233.663C215.633 233.523 215.638 233.379 215.669 233.24C215.699 233.101 215.757 232.97 215.84 232.855C215.922 232.74 216.027 232.643 216.148 232.57C216.27 232.498 216.404 232.45 216.545 232.432C216.685 232.413 216.827 232.423 216.963 232.462L221.622 233.542C221.889 233.623 222.117 233.8 222.26 234.04C222.404 234.28 222.453 234.564 222.398 234.839C222.341 235.071 222.208 235.278 222.021 235.426C221.834 235.575 221.602 235.657 221.363 235.66Z" fill="#EA522F"/>
<path d="M215.195 238.036C215.012 238.033 214.833 237.985 214.675 237.894C214.516 237.803 214.384 237.674 214.289 237.518L206.352 225.073C206.204 224.824 206.158 224.529 206.222 224.247C206.286 223.966 206.456 223.72 206.697 223.56C206.938 223.415 207.226 223.369 207.5 223.434C207.775 223.499 208.013 223.668 208.164 223.906L216.144 236.351C216.291 236.599 216.338 236.895 216.273 237.176C216.209 237.458 216.039 237.704 215.799 237.863C215.621 237.985 215.409 238.046 215.195 238.036Z" fill="#EA522F"/>
<path d="M220.198 239.419H219.896L214.893 238.036C214.617 237.955 214.382 237.771 214.237 237.522C214.093 237.272 214.05 236.977 214.116 236.697C214.196 236.421 214.382 236.19 214.633 236.052C214.884 235.914 215.179 235.882 215.454 235.962L220.5 237.345C220.635 237.38 220.761 237.441 220.871 237.526C220.981 237.61 221.073 237.716 221.141 237.837C221.209 237.958 221.253 238.092 221.269 238.23C221.285 238.368 221.273 238.508 221.234 238.641C221.175 238.869 221.04 239.071 220.852 239.212C220.664 239.353 220.434 239.426 220.198 239.419Z" fill="#EA522F"/>
<path d="M221.708 243.092C219.609 242.81 217.552 242.273 215.583 241.493C213.815 240.794 212.147 239.864 210.622 238.728C210.506 238.646 210.406 238.541 210.33 238.421C210.254 238.3 210.202 238.166 210.178 238.025C210.154 237.885 210.158 237.741 210.19 237.602C210.222 237.463 210.281 237.331 210.364 237.215C210.445 237.097 210.549 236.996 210.671 236.921C210.793 236.845 210.929 236.795 211.071 236.775C211.213 236.755 211.358 236.764 211.496 236.803C211.634 236.841 211.762 236.908 211.873 236.999C213.285 238.001 214.804 238.842 216.402 239.505C218.152 240.192 219.976 240.671 221.837 240.931C221.982 240.941 222.122 240.982 222.25 241.049C222.378 241.117 222.491 241.211 222.58 241.325C222.67 241.439 222.734 241.571 222.77 241.711C222.805 241.852 222.811 241.998 222.786 242.141C222.755 242.405 222.627 242.647 222.428 242.823C222.229 242.998 221.973 243.094 221.708 243.092Z" fill="#EA522F"/>
<path d="M215.41 167.299C214.19 165.963 213.358 164.318 213.003 162.542C212.649 160.766 212.785 158.927 213.398 157.224C214.011 155.52 215.077 154.016 216.48 152.875C217.884 151.734 219.572 150.999 221.363 150.749L233.785 147.422C235.305 147.086 236.883 147.123 238.384 147.529C239.886 147.936 241.268 148.699 242.412 149.755C243.02 150.419 243.489 151.198 243.793 152.045C247.511 155.389 250.839 159.143 253.714 163.237C254.275 164.188 254.965 165.398 254.49 166.435C254.016 167.472 251.6 167.947 251.169 167.947C251.311 168.397 251.311 168.88 251.169 169.33C250.263 171.534 246.036 172.355 240.687 171.491L225.158 169.719C225.633 170.065 232.923 175.855 231.542 178.88C231.369 179.231 231.114 179.537 230.799 179.77C230.484 180.003 230.117 180.157 229.731 180.219C228.092 180.219 226.841 178.059 224.943 175.596C223.165 173.34 221.106 171.322 218.818 169.589C217.691 169.092 216.667 168.389 215.798 167.515L215.41 167.299Z" fill="#FF8C64"/>
<path d="M229.559 180.997C227.833 180.997 226.582 179.355 225.245 177.454L224.124 175.941C222.418 173.758 220.431 171.811 218.214 170.151C217.25 169.72 216.362 169.136 215.583 168.422C215.48 168.326 215.397 168.208 215.341 168.078C215.285 167.948 215.256 167.808 215.256 167.666C215.256 167.525 215.285 167.384 215.341 167.254C215.397 167.124 215.48 167.007 215.583 166.91C215.784 166.712 216.056 166.601 216.338 166.601C216.62 166.601 216.891 166.712 217.093 166.91C217.774 167.526 218.545 168.036 219.379 168.422C221.799 170.219 223.974 172.326 225.849 174.688C226.28 175.207 226.668 175.768 227.014 176.244C228.049 177.67 229.041 179.009 229.731 178.923C229.926 178.888 230.11 178.807 230.267 178.686C230.425 178.566 230.551 178.41 230.637 178.231C231.284 176.806 228.006 173.046 224.598 170.367C224.413 170.224 224.279 170.024 224.216 169.798C224.154 169.572 224.167 169.332 224.253 169.114C224.353 168.902 224.512 168.724 224.711 168.602C224.91 168.479 225.141 168.417 225.375 168.422L240.903 170.237C246.295 171.058 249.53 170.237 250.307 168.725C250.353 168.439 250.353 168.147 250.307 167.861C250.199 167.598 250.199 167.303 250.307 167.04C250.404 166.926 250.522 166.834 250.656 166.767C250.789 166.7 250.934 166.661 251.083 166.651C252.075 166.651 253.196 166.305 253.455 165.743C253.714 165.182 253.024 164.015 252.765 163.583C251.586 161.776 250.259 160.07 248.797 158.484C248.599 158.282 248.488 158.01 248.488 157.728C248.488 157.445 248.599 157.173 248.797 156.971C248.897 156.867 249.018 156.784 249.151 156.727C249.285 156.67 249.428 156.641 249.573 156.641C249.718 156.641 249.862 156.67 249.995 156.727C250.128 156.784 250.249 156.867 250.35 156.971C251.926 158.657 253.368 160.463 254.663 162.373C255.137 162.974 255.459 163.68 255.602 164.433C255.745 165.185 255.704 165.961 255.483 166.694C255.135 167.259 254.663 167.735 254.102 168.088C253.541 168.44 252.906 168.658 252.248 168.725C252.201 169.019 252.129 169.308 252.032 169.589C250.867 172.268 246.424 173.349 240.342 172.398L228.351 171.015C230.766 173.349 233.484 176.676 232.362 179.182C232.111 179.702 231.736 180.152 231.269 180.491C230.802 180.83 230.259 181.049 229.688 181.127L229.559 180.997Z" fill="#EA522F"/>
<path d="M250.953 168.811L234.087 166.435C233.808 166.392 233.557 166.241 233.388 166.015C233.218 165.789 233.144 165.505 233.181 165.225C233.197 165.084 233.241 164.948 233.311 164.825C233.382 164.702 233.476 164.594 233.589 164.509C233.702 164.424 233.832 164.363 233.969 164.33C234.107 164.297 234.25 164.293 234.389 164.317L251.126 166.651C251.412 166.651 251.686 166.765 251.888 166.967C252.09 167.17 252.204 167.445 252.204 167.731C252.204 168.018 252.09 168.292 251.888 168.495C251.686 168.698 251.412 168.811 251.126 168.811H250.953Z" fill="#EA522F"/>
<path d="M254.404 165.354H254.059L236.374 159.305C236.239 159.267 236.113 159.2 236.006 159.11C235.898 159.02 235.811 158.908 235.749 158.781C235.688 158.654 235.655 158.516 235.651 158.376C235.647 158.235 235.673 158.095 235.727 157.965C235.816 157.698 236.005 157.477 236.255 157.347C236.505 157.218 236.795 157.192 237.064 157.274L254.706 163.28C254.843 163.323 254.969 163.394 255.077 163.489C255.185 163.584 255.272 163.699 255.333 163.829C255.394 163.959 255.427 164.101 255.43 164.244C255.434 164.388 255.408 164.53 255.353 164.663C255.284 164.861 255.156 165.033 254.986 165.156C254.817 165.28 254.614 165.349 254.404 165.354Z" fill="#EA522F"/>
<path d="M248.926 158.311C248.785 158.35 248.636 158.35 248.495 158.311L235.252 152.046C234.993 151.915 234.794 151.689 234.698 151.415C234.601 151.142 234.614 150.841 234.734 150.576C234.864 150.328 235.084 150.139 235.35 150.05C235.616 149.961 235.906 149.98 236.158 150.101L249.4 156.367C249.531 156.422 249.649 156.504 249.747 156.608C249.845 156.711 249.92 156.833 249.969 156.967C250.017 157.101 250.038 157.243 250.029 157.385C250.02 157.527 249.983 157.666 249.918 157.793C249.816 157.962 249.669 158.1 249.494 158.191C249.319 158.282 249.123 158.324 248.926 158.311Z" fill="#EA522F"/>
<path d="M262.125 2.23132C268.159 4.10041 273.358 8.01046 276.834 13.2935C277.093 13.8552 277.309 14.3305 277.481 14.8059C278.29 17.1349 278.783 19.5619 278.948 22.0222C279.25 27.6396 283.261 30.3188 284.34 36.714C285.547 44.5353 281.061 52.1837 279.595 51.9245C278.128 51.6652 279.595 46.9984 277.783 40.9488C276.017 35.8272 272.811 31.3257 268.552 27.9853L248.624 18.0899C245.777 22.0141 242.41 25.532 238.617 28.5471C236.374 30.3188 235.856 30.4052 233.052 32.609C225.676 38.3561 224.727 41.2512 223.088 40.8191C220.069 40.0845 218.775 29.4545 221.665 20.3801C223.468 14.4575 227.091 9.25577 232.017 5.51539C244.569 -3.8615 259.71 1.36709 262.125 2.23132Z" fill="#3F469A"/>
<path d="M278.56 32.1769C279.245 32.9077 279.747 33.7905 280.027 34.7533C280.306 35.716 280.354 36.7313 280.166 37.7161C279.978 38.7009 279.561 39.6272 278.947 40.4193C278.334 41.2114 277.542 41.8468 276.636 42.2735C275.731 42.7002 274.737 42.9061 273.737 42.8744C272.737 42.8427 271.758 42.5742 270.881 42.091C270.004 41.6077 269.254 40.9235 268.692 40.0941C268.13 39.2647 267.771 38.3137 267.646 37.319C266.615 35.7051 266.25 33.7528 266.628 31.8743C267.007 29.9959 268.099 28.3381 269.674 27.2508C272.607 25.8248 276.618 28.0286 278.56 32.1769Z" fill="#FF8C64"/>
<path d="M274.548 43.7143C274.219 43.7568 273.885 43.7568 273.556 43.7143C273.277 43.6716 273.026 43.5209 272.857 43.2947C272.687 43.0685 272.613 42.7847 272.65 42.5044C272.671 42.3618 272.72 42.2247 272.795 42.1014C272.87 41.9781 272.968 41.871 273.085 41.7865C273.201 41.7019 273.334 41.6416 273.474 41.609C273.614 41.5765 273.759 41.5724 273.901 41.597C274.644 41.7316 275.41 41.6413 276.101 41.3377C276.844 40.8932 277.455 40.2586 277.872 39.4992C278.289 38.7398 278.496 37.8829 278.473 37.0166C278.473 36.4116 278.905 35.8499 279.595 35.9795C279.735 35.9794 279.873 36.0076 280.001 36.0624C280.13 36.1172 280.246 36.1974 280.343 36.2984C280.439 36.3993 280.515 36.5188 280.564 36.6496C280.614 36.7805 280.636 36.92 280.63 37.0598C280.693 38.3601 280.386 39.6517 279.744 40.7839C279.103 41.9161 278.154 42.8425 277.007 43.4551C276.214 43.7117 275.377 43.8 274.548 43.7143Z" fill="#EA522F"/>
<path d="M279.508 36.7575C279.242 36.7405 278.99 36.6326 278.794 36.4517C278.597 36.2708 278.469 36.0279 278.43 35.7636C278.373 34.8719 278.169 33.9957 277.826 33.1709C277.771 33.0409 277.743 32.9009 277.743 32.7595C277.744 32.6182 277.774 32.4785 277.83 32.349C277.887 32.2195 277.969 32.1029 278.072 32.0065C278.175 31.91 278.297 31.8357 278.43 31.7881C278.693 31.6885 278.985 31.696 279.243 31.8091C279.501 31.9221 279.705 32.1317 279.81 32.3931C280.23 33.3981 280.492 34.4622 280.587 35.5475C280.605 35.6896 280.595 35.8338 280.557 35.9718C280.518 36.1098 280.453 36.2388 280.365 36.3514C280.277 36.464 280.167 36.5578 280.042 36.6276C279.917 36.6973 279.78 36.7414 279.638 36.7575H279.508Z" fill="#EA522F"/>
<path d="M278.172 32.4359C277.981 32.4455 277.792 32.4021 277.624 32.3106C277.457 32.2191 277.318 32.083 277.223 31.9174C275.454 28.8062 272.305 27.1641 270.019 28.2444C269.53 28.4732 269.102 28.8136 268.768 29.2383C268.567 29.4362 268.296 29.5471 268.013 29.5471C267.731 29.5471 267.46 29.4362 267.258 29.2383C267.155 29.1413 267.073 29.0241 267.017 28.8941C266.961 28.764 266.932 28.6238 266.932 28.4821C266.932 28.3403 266.961 28.2001 267.017 28.0701C267.073 27.94 267.155 27.8229 267.258 27.7259C267.8 27.0412 268.494 26.4935 269.286 26.127C271.212 25.5 273.303 25.618 275.147 26.4577C276.991 27.2973 278.455 28.7979 279.25 30.6642C279.392 30.911 279.43 31.2037 279.357 31.4788C279.285 31.7539 279.107 31.9891 278.862 32.1334C278.672 32.3081 278.429 32.4145 278.172 32.4359Z" fill="#EA522F"/>
<path d="M273.599 39.9118C273.32 39.9239 273.047 39.827 272.838 39.6417C272.629 39.4563 272.5 39.1969 272.478 38.918L272.046 30.7942C272.034 30.5032 272.136 30.219 272.329 30.0013C272.522 29.7837 272.792 29.6496 273.082 29.6275C273.223 29.6217 273.365 29.6439 273.498 29.693C273.631 29.742 273.753 29.8168 273.857 29.9131C273.961 30.0094 274.045 30.1254 274.105 30.2543C274.164 30.3832 274.198 30.5227 274.203 30.6646L274.634 38.7883C274.653 38.9293 274.641 39.0726 274.6 39.2086C274.558 39.3445 274.488 39.47 274.394 39.5765C274.3 39.683 274.184 39.768 274.054 39.8259C273.925 39.8837 273.784 39.913 273.642 39.9118H273.599Z" fill="#EA522F"/>
<path d="M273.082 35.288C272.864 35.274 272.655 35.1992 272.478 35.072L270.148 33.5596C270.029 33.4801 269.927 33.378 269.848 33.259C269.768 33.14 269.713 33.0065 269.685 32.866C269.657 32.7256 269.657 32.581 269.684 32.4405C269.712 32.3 269.767 32.1663 269.846 32.0472C269.926 31.928 270.028 31.8257 270.146 31.746C270.265 31.6663 270.399 31.6108 270.539 31.5827C270.679 31.5546 270.823 31.5545 270.964 31.5823C271.104 31.6101 271.237 31.6652 271.356 31.7447L273.685 33.3003C273.804 33.3747 273.906 33.4724 273.986 33.5876C274.066 33.7027 274.122 33.8329 274.15 33.9702C274.178 34.1075 274.178 34.2492 274.15 34.3865C274.123 34.5239 274.067 34.6542 273.987 34.7695C273.893 34.9256 273.76 35.0551 273.601 35.1458C273.443 35.2365 273.264 35.2854 273.082 35.288Z" fill="#EA522F"/>
<path d="M322.169 185.318H317.554C317.268 185.318 316.993 185.204 316.791 185.002C316.589 184.799 316.475 184.524 316.475 184.238C316.475 183.951 316.589 183.676 316.791 183.474C316.993 183.271 317.268 183.157 317.554 183.157H322.212C322.498 183.157 322.773 183.271 322.975 183.474C323.177 183.676 323.291 183.951 323.291 184.238C323.291 184.524 323.177 184.799 322.975 185.002C322.773 185.204 322.498 185.318 322.212 185.318H322.169Z" fill="#EA522F"/>
<path d="M314.75 152.175C314.478 152.176 314.216 152.074 314.016 151.89C313.816 151.706 313.693 151.453 313.671 151.181L312.248 134.329C312.224 134.049 312.309 133.77 312.486 133.553C312.663 133.335 312.918 133.195 313.197 133.162C313.336 133.144 313.478 133.155 313.613 133.193C313.748 133.232 313.874 133.298 313.983 133.387C314.092 133.476 314.182 133.586 314.247 133.711C314.312 133.836 314.351 133.972 314.362 134.113L315.828 151.008C315.84 151.15 315.824 151.293 315.78 151.429C315.737 151.564 315.667 151.69 315.574 151.799C315.482 151.907 315.37 151.996 315.243 152.061C315.116 152.125 314.978 152.164 314.836 152.175H314.75Z" fill="#EA522F"/>
<path d="M306.468 215.869C294.321 229.126 284.505 244.35 277.438 260.895C276.187 264.352 275.195 268.63 272.003 276.019C268.035 285.136 265.274 288.55 266.654 290.322C268.035 292.094 271.356 291.056 283.908 286.779C294.304 283.235 299.523 281.464 303.104 279.908C317.05 273.815 330.556 266.754 343.521 258.778C373.284 238.9 400.718 192.102 390.495 180.262C380.272 168.422 331.875 188.689 306.468 215.869Z" fill="#E3E3FD"/>
<path d="M266.439 291.402C266.198 291.403 265.964 291.324 265.774 291.177C265.584 291.029 265.448 290.823 265.388 290.589C265.329 290.356 265.349 290.109 265.445 289.888C265.542 289.668 265.709 289.486 265.921 289.371C314.774 262.503 357.023 225.05 389.589 179.744C389.755 179.509 390.007 179.35 390.29 179.301C390.573 179.252 390.864 179.318 391.099 179.485C391.333 179.651 391.492 179.903 391.541 180.187C391.589 180.471 391.523 180.762 391.357 180.997C358.612 226.584 316.109 264.261 266.956 291.273C266.801 291.367 266.62 291.412 266.439 291.402Z" fill="#BBBBF9"/>
<path d="M219.637 249.055C231.656 253.835 242.783 260.613 252.549 269.105C254.447 270.963 256.431 273.426 260.831 277.186C266.223 281.809 269.113 283.192 268.725 284.748C268.337 286.303 265.921 286.735 256.475 287.902C248.581 288.896 244.656 289.371 241.895 289.501C230.919 290.005 219.921 289.731 208.983 288.68C183.49 285.18 151.053 263.487 153.986 252.598C156.919 241.709 194.533 239.548 219.637 249.055Z" fill="#E3E3FD"/>
<path d="M268.725 285.828C250.719 284.908 232.847 282.216 215.367 277.791C193.82 272.282 173.032 264.14 153.468 253.549C153.345 253.486 153.236 253.398 153.147 253.291C153.058 253.184 152.991 253.061 152.951 252.928C152.911 252.795 152.898 252.655 152.913 252.517C152.927 252.378 152.97 252.245 153.037 252.123C153.097 251.996 153.181 251.882 153.286 251.789C153.391 251.695 153.514 251.624 153.647 251.58C153.78 251.535 153.921 251.518 154.061 251.53C154.201 251.542 154.337 251.582 154.461 251.648C189.72 270.723 228.789 281.663 268.811 283.668C269.09 283.69 269.349 283.819 269.534 284.029C269.719 284.238 269.815 284.511 269.803 284.791C269.803 284.931 269.775 285.069 269.721 285.198C269.666 285.327 269.586 285.443 269.485 285.54C269.384 285.637 269.265 285.712 269.134 285.762C269.004 285.811 268.865 285.834 268.725 285.828Z" fill="#BBBBF9"/>
<path d="M287.23 253.247C281.015 259.405 273.812 264.473 265.921 268.241C264.239 268.933 262.169 269.494 258.632 271.18C254.318 273.297 252.679 274.723 251.816 274.075C250.953 273.427 251.342 271.785 253.197 265.432C254.706 260.29 255.483 257.698 256.173 255.969C258.814 249.009 261.957 242.25 265.576 235.746C274.678 220.838 296.935 206.578 302.888 211.332C308.841 216.085 299.955 240.24 287.23 253.247Z" fill="#5B98E8"/>
<path d="M251.816 275.155C251.661 275.199 251.496 275.199 251.341 275.155C251.21 275.099 251.092 275.017 250.995 274.914C250.897 274.811 250.821 274.688 250.773 274.555C250.724 274.421 250.704 274.279 250.712 274.136C250.721 273.994 250.759 273.856 250.824 273.729C256.294 262.763 262.84 252.37 270.364 242.703C279.596 230.74 290.275 219.97 302.154 210.64C302.263 210.537 302.391 210.458 302.532 210.408C302.673 210.358 302.822 210.338 302.971 210.348C303.12 210.359 303.265 210.4 303.397 210.47C303.529 210.54 303.646 210.636 303.739 210.754C303.831 210.871 303.899 211.006 303.937 211.15C303.975 211.295 303.983 211.446 303.96 211.594C303.936 211.742 303.883 211.883 303.802 212.009C303.722 212.135 303.616 212.243 303.491 212.325C282.159 229.027 264.815 250.284 252.722 274.55C252.642 274.725 252.514 274.874 252.354 274.981C252.194 275.088 252.008 275.148 251.816 275.155Z" fill="#BBBBF9"/>
<path d="M278.775 294.384C270.657 291.102 263.159 286.455 256.604 280.642C254.856 278.707 252.998 276.875 251.04 275.155C247.416 271.957 245.475 270.833 245.734 269.969C245.993 269.105 247.632 268.63 254.059 267.895C259.365 267.29 262.039 266.988 263.937 266.901C271.364 266.604 278.803 266.85 286.195 267.636C303.449 270.142 325.275 284.92 323.248 292.353C321.22 299.785 295.727 300.995 278.775 294.384Z" fill="#5B98E8"/>
<path d="M323.248 293.347C323.077 293.386 322.9 293.386 322.73 293.347C299.005 280.286 272.673 272.684 245.648 271.093C245.369 271.071 245.11 270.941 244.925 270.732C244.74 270.522 244.644 270.249 244.656 269.969C244.655 269.826 244.685 269.683 244.742 269.552C244.799 269.42 244.883 269.301 244.989 269.204C245.094 269.106 245.219 269.032 245.355 268.985C245.49 268.938 245.634 268.92 245.777 268.932C273.107 270.501 299.74 278.179 323.722 291.402C323.934 291.517 324.101 291.699 324.198 291.919C324.294 292.14 324.314 292.387 324.255 292.62C324.195 292.854 324.06 293.06 323.869 293.208C323.679 293.355 323.445 293.434 323.204 293.433L323.248 293.347Z" fill="#BBBBF9"/>
<path d="M261.306 249.055C259.582 256.125 256.665 262.848 252.679 268.932C251.308 270.621 250.027 272.381 248.84 274.204C246.683 277.575 246.165 279.26 245.26 279.174C244.354 279.087 243.965 277.791 242.542 272.605C241.377 268.284 240.817 266.167 240.515 264.611C239.384 258.561 238.678 252.439 238.401 246.29C238.401 231.814 247.805 212.066 254.059 212.844C260.314 213.622 264.627 234.363 261.306 249.055Z" fill="#5B98E8"/>
<path d="M244.354 280.383C244.086 280.395 243.824 280.303 243.623 280.126C243.422 279.948 243.297 279.7 243.275 279.433C242.37 269.365 242.472 259.232 243.577 249.185C244.954 236.72 247.851 224.472 252.204 212.714C252.255 212.581 252.332 212.459 252.43 212.355C252.528 212.251 252.645 212.168 252.776 212.11C252.906 212.052 253.046 212.02 253.189 212.016C253.331 212.012 253.473 212.036 253.606 212.088C253.739 212.139 253.861 212.215 253.965 212.314C254.068 212.412 254.151 212.53 254.209 212.66C254.267 212.79 254.299 212.931 254.303 213.074C254.307 213.216 254.283 213.359 254.232 213.492C246.487 234.523 243.539 257.025 245.605 279.346C245.616 279.488 245.6 279.631 245.557 279.767C245.513 279.902 245.443 280.028 245.351 280.136C245.259 280.245 245.146 280.334 245.019 280.398C244.893 280.463 244.754 280.502 244.613 280.513L244.354 280.383Z" fill="#BBBBF9"/>
<path d="M222.312 278.612C228.536 274.891 235.349 272.26 242.456 270.834C243.922 270.618 245.691 270.574 248.883 269.926C252.765 269.105 254.361 268.284 254.922 268.975C255.483 269.667 254.922 270.92 252.118 275.544C249.875 279.346 248.754 281.291 247.805 282.544C244.282 287.596 240.405 292.39 236.201 296.89C225.935 307.045 205.187 314.175 201.391 309.032C197.596 303.89 209.501 286.519 222.312 278.612Z" fill="#5B98E8"/>
<path d="M202.124 310.891C201.921 310.883 201.725 310.818 201.557 310.704C201.389 310.589 201.257 310.429 201.175 310.242C201.057 309.984 201.045 309.69 201.142 309.423C201.239 309.156 201.437 308.938 201.693 308.816C222.101 299.67 240.213 286.073 254.706 269.019C254.799 268.911 254.913 268.823 255.041 268.759C255.168 268.695 255.307 268.657 255.449 268.647C255.592 268.637 255.734 268.655 255.87 268.7C256.005 268.746 256.13 268.817 256.237 268.911C256.345 269.004 256.433 269.118 256.497 269.246C256.56 269.374 256.598 269.513 256.608 269.655C256.618 269.798 256.6 269.941 256.555 270.076C256.51 270.212 256.439 270.337 256.345 270.445C241.625 287.666 223.267 301.393 202.599 310.631C202.468 310.76 202.304 310.85 202.124 310.891Z" fill="#BBBBF9"/>
<path d="M255.267 250.697C261.004 254.672 260.055 265.864 253.196 275.76C246.338 285.655 236.158 290.408 230.464 286.433C224.77 282.457 225.676 271.222 232.535 261.37C239.393 251.518 249.573 246.722 255.267 250.697Z" fill="#FFC5D2"/>
<path d="M270.795 291.057C269.156 297.884 258.329 301.125 246.596 298.359C234.864 295.594 226.625 287.773 228.221 281.075C229.817 274.377 240.687 271.007 252.42 273.815C264.152 276.624 272.391 284.229 270.795 291.057Z" fill="#FFC5D2"/>
<path d="M272.693 290.495C266.18 293.001 257.38 285.871 253.024 274.593C248.667 263.315 250.479 252.123 256.992 249.617C263.506 247.111 272.305 254.197 276.662 265.476C281.018 276.754 279.207 287.945 272.693 290.495Z" fill="#FFC5D2"/>
<path d="M258.631 267.42C258.751 268.863 258.678 270.316 258.416 271.741C258.422 275.136 259.612 278.422 261.78 281.031C259.23 280.407 256.566 280.407 254.016 281.031C251.212 281.723 250.177 282.889 248.063 282.846C245.95 282.803 243.75 282.025 240.946 278.266C243.902 277.363 246.489 275.53 248.322 273.037C250.565 269.754 251.419 265.714 250.695 261.802C254.016 262.666 257.855 264.438 258.631 267.42Z" fill="#122275"/>
<path d="M154.547 197.806C178.417 197.806 197.768 178.421 197.768 154.508C197.768 130.596 178.417 111.21 154.547 111.21C130.676 111.21 111.326 130.596 111.326 154.508C111.326 178.421 130.676 197.806 154.547 197.806Z" fill="#E3E3FD"/>
<path d="M158.429 157.015C158.486 157.557 158.429 158.105 158.261 158.624C158.093 159.143 157.818 159.62 157.454 160.025C157.09 160.431 156.645 160.755 156.148 160.977C155.651 161.199 155.113 161.313 154.568 161.313C154.024 161.313 153.486 161.199 152.989 160.977C152.492 160.755 152.046 160.431 151.682 160.025C151.318 159.62 151.043 159.143 150.876 158.624C150.708 158.105 150.651 157.557 150.708 157.015C150.809 156.06 151.259 155.176 151.972 154.533C152.685 153.891 153.61 153.535 154.568 153.535C155.527 153.535 156.452 153.891 157.165 154.533C157.878 155.176 158.328 156.06 158.429 157.015Z" fill="#3F469A"/>
<path d="M154.806 120.415H154.288C153.764 120.415 153.339 120.84 153.339 121.365V153.947C153.339 154.472 153.764 154.897 154.288 154.897H154.806C155.33 154.897 155.755 154.472 155.755 153.947V121.365C155.755 120.84 155.33 120.415 154.806 120.415Z" fill="#3F469A"/>
<path d="M173.449 138.446L172.971 137.947C172.642 137.602 172.096 137.59 171.752 137.92L155.11 153.873C154.766 154.203 154.754 154.751 155.083 155.095L155.56 155.595C155.89 155.94 156.436 155.952 156.78 155.622L173.422 139.668C173.766 139.338 173.778 138.791 173.449 138.446Z" fill="#3F469A"/>
<path d="M117.925 154.508H112.361C112.162 154.509 111.971 154.433 111.826 154.296C111.682 154.159 111.595 153.972 111.584 153.774C111.584 153.567 111.666 153.37 111.812 153.224C111.957 153.078 112.155 152.996 112.361 152.996H118.141C118.241 152.996 118.34 153.016 118.432 153.056C118.524 153.095 118.606 153.153 118.675 153.226C118.744 153.299 118.797 153.385 118.831 153.479C118.865 153.573 118.88 153.674 118.874 153.774C118.879 153.891 118.856 154.009 118.807 154.115C118.757 154.222 118.683 154.316 118.59 154.388C118.497 154.46 118.388 154.508 118.272 154.529C118.156 154.55 118.037 154.543 117.925 154.508Z" fill="#3F469A"/>
<path d="M196.991 154.508H191.211C191.115 154.508 191.019 154.489 190.931 154.452C190.842 154.415 190.761 154.361 190.693 154.293C190.625 154.225 190.571 154.144 190.534 154.055C190.497 153.966 190.478 153.87 190.478 153.774C190.472 153.674 190.487 153.573 190.521 153.479C190.555 153.385 190.608 153.299 190.677 153.226C190.746 153.153 190.828 153.095 190.92 153.056C191.012 153.016 191.111 152.996 191.211 152.996H196.991C197.197 152.996 197.395 153.078 197.54 153.224C197.686 153.37 197.768 153.567 197.768 153.774C197.757 153.972 197.67 154.159 197.526 154.296C197.381 154.433 197.19 154.509 196.991 154.508Z" fill="#3F469A"/>
<path d="M155.496 190.46V196.294C155.485 196.485 155.405 196.666 155.27 196.802C155.134 196.937 154.954 197.018 154.762 197.029C154.564 197.029 154.373 196.953 154.228 196.816C154.084 196.68 153.997 196.493 153.986 196.294V190.46C153.997 190.262 154.084 190.075 154.228 189.938C154.373 189.802 154.564 189.726 154.762 189.726C154.954 189.736 155.134 189.817 155.27 189.953C155.405 190.088 155.485 190.269 155.496 190.46Z" fill="#3F469A"/>
<path d="M155.496 111.254V117.044C155.496 117.243 155.42 117.435 155.284 117.579C155.147 117.724 154.961 117.811 154.762 117.822C154.557 117.822 154.359 117.74 154.214 117.594C154.068 117.448 153.986 117.25 153.986 117.044V111.254C153.986 111.047 154.068 110.85 154.214 110.704C154.359 110.558 154.557 110.476 154.762 110.476C154.961 110.487 155.147 110.574 155.284 110.718C155.42 110.863 155.496 111.055 155.496 111.254Z" fill="#3F469A"/>
<path d="M329.804 75.6477C326.239 75.7144 322.74 74.6726 319.789 72.6656C316.839 70.6586 314.582 67.785 313.329 64.4402C312.075 61.0954 311.887 57.4437 312.791 53.9875C313.694 50.5314 315.645 47.4406 318.374 45.1404C321.846 42.1091 326.378 40.5837 330.972 40.8998C335.567 41.2158 339.848 43.3474 342.874 46.8257C345.9 50.3039 347.423 54.8438 347.107 59.4467C346.792 64.0496 344.664 68.3385 341.192 71.3698C338.04 74.1331 333.993 75.6536 329.804 75.6477ZM329.804 45.3997C326.635 45.3712 323.565 46.509 321.177 48.5973C318.563 50.8894 316.965 54.1279 316.735 57.6003C316.504 61.0728 317.66 64.4947 319.948 67.1134C322.236 69.7321 325.469 71.333 328.935 71.564C332.401 71.795 335.817 70.637 338.431 68.345C340.432 66.6721 341.883 64.4329 342.592 61.9205C343.302 59.4081 343.237 56.7397 342.407 54.2646C341.578 51.7894 340.021 49.623 337.942 48.049C335.862 46.4749 333.357 45.5666 330.753 45.4429L329.804 45.3997Z" fill="#FFC5D2"/>
<path d="M356.807 91.5493C356.498 91.5465 356.192 91.4799 355.91 91.3534C355.628 91.227 355.375 91.0436 355.167 90.8147L337.913 71.1102C337.726 70.8991 337.583 70.6524 337.492 70.3848C337.401 70.1173 337.364 69.8342 337.385 69.5523C337.405 69.2704 337.481 68.9954 337.609 68.7434C337.737 68.4915 337.914 68.2678 338.129 68.0854C338.567 67.7145 339.132 67.5294 339.704 67.5698C340.276 67.6101 340.81 67.8727 341.192 68.3015L358.446 87.9627C358.633 88.1739 358.777 88.4206 358.867 88.6881C358.958 88.9557 358.995 89.2388 358.975 89.5207C358.954 89.8026 358.878 90.0776 358.75 90.3295C358.622 90.5814 358.446 90.8052 358.23 90.9875C358.042 91.1709 357.819 91.3149 357.574 91.4114C357.33 91.5078 357.069 91.5547 356.807 91.5493Z" fill="#FFC5D2"/>
<path d="M344.168 90.5123C343.864 90.5208 343.561 90.459 343.284 90.3316C343.008 90.2042 342.764 90.0147 342.572 89.7777C342.385 89.5665 342.241 89.3199 342.15 89.0523C342.06 88.7848 342.023 88.5017 342.043 88.2198C342.063 87.9379 342.14 87.6629 342.267 87.4109C342.395 87.159 342.572 86.9353 342.788 86.7529L356.159 75.0859C356.596 74.792 357.125 74.6682 357.647 74.738C358.169 74.8077 358.647 75.0662 358.992 75.4646C359.336 75.8629 359.524 76.3738 359.518 76.901C359.513 77.4282 359.316 77.9352 358.963 78.3267L345.592 89.9938C345.195 90.3333 344.689 90.5176 344.168 90.5123Z" fill="#FFC5D2"/>
<path d="M367.978 64.0669C363.901 64.0777 359.951 62.6415 356.83 60.0128C353.708 57.3842 351.617 53.7331 350.927 49.707C350.237 45.681 350.993 41.5403 353.06 38.0193C355.128 34.4983 358.373 31.8245 362.221 30.4723C366.069 29.1201 370.27 29.1767 374.08 30.6323C377.89 32.0878 381.063 34.8481 383.035 38.4236C385.007 41.9991 385.651 46.1587 384.853 50.1646C384.055 54.1706 381.866 57.764 378.676 60.3075C375.634 62.7319 371.865 64.0566 367.978 64.0669ZM367.978 33.5596C365.511 33.5195 363.083 34.187 360.982 35.4835C358.881 36.78 357.193 38.6513 356.119 40.8768C355.044 43.1024 354.627 45.5893 354.917 48.0444C355.207 50.4995 356.192 52.8203 357.755 54.7332C359.094 56.3566 360.807 57.629 362.747 58.4402C364.686 59.2514 366.794 59.5771 368.888 59.3891C370.981 59.2011 372.997 58.5051 374.762 57.3613C376.527 56.2174 377.987 54.6602 379.016 52.8241C380.045 50.9881 380.612 48.9286 380.668 46.8238C380.724 44.7189 380.268 42.632 379.338 40.7436C378.408 38.8551 377.033 37.2219 375.332 35.9853C373.631 34.7487 371.655 33.9458 369.574 33.646L367.978 33.5596Z" fill="#5B98E8"/>
<path d="M358.575 36.8867C358.251 36.8884 357.93 36.8153 357.638 36.6729C357.347 36.5305 357.092 36.3228 356.893 36.0657L340.976 15.5403C340.774 15.3394 340.613 15.1005 340.504 14.8372C340.395 14.5739 340.338 14.2915 340.338 14.0063C340.338 13.7211 340.395 13.4387 340.504 13.1754C340.613 12.9121 340.774 12.6731 340.976 12.4723C341.434 12.127 342.006 11.9705 342.576 12.0348C343.145 12.0991 343.669 12.3793 344.039 12.818L360.085 33.3434C360.437 33.7911 360.599 34.3604 360.534 34.927C360.47 35.4937 360.184 36.0117 359.74 36.3682C359.411 36.6524 359.006 36.8328 358.575 36.8867Z" fill="#5B98E8"/>
<path d="M340.976 28.9793C340.685 28.9795 340.398 28.9209 340.13 28.8069C339.863 28.693 339.621 28.5261 339.42 28.3162C339.218 28.1063 339.061 27.8578 338.958 27.5856C338.855 27.3135 338.808 27.0232 338.819 26.7323L339.423 13.2071C339.428 12.8955 339.505 12.5892 339.647 12.3119C339.789 12.0347 339.993 11.7939 340.243 11.6083C340.486 11.4222 340.764 11.2879 341.061 11.2136C341.358 11.1393 341.666 11.1265 341.968 11.1762L355.34 13.7256C355.912 13.8345 356.417 14.1665 356.745 14.6487C357.073 15.1309 357.196 15.7237 357.087 16.2967C356.978 16.8697 356.647 17.376 356.166 17.7042C355.684 18.0324 355.093 18.1556 354.521 18.0468L343.607 15.9726L343.133 26.9915C343.089 27.5341 342.843 28.0402 342.443 28.4087C342.043 28.7772 341.519 28.981 340.976 28.9793Z" fill="#5B98E8"/>
<defs>
<filter id="filter0_f_140_1329" x="39.6717" y="300.594" width="28.1246" height="27.5663" filterUnits="userSpaceOnUse" color-interpolation-filters="sRGB">
<feFlood flood-opacity="0" result="BackgroundImageFix"/>
<feBlend mode="normal" in="SourceGraphic" in2="BackgroundImageFix" result="shape"/>
<feGaussianBlur stdDeviation="0.775726" result="effect1_foregroundBlur_140_1329"/>
</filter>
<filter id="filter1_f_140_1329" x="0.275514" y="286.254" width="28.4475" height="27.9509" filterUnits="userSpaceOnUse" color-interpolation-filters="sRGB">
<feFlood flood-opacity="0" result="BackgroundImageFix"/>
<feBlend mode="normal" in="SourceGraphic" in2="BackgroundImageFix" result="shape"/>
<feGaussianBlur stdDeviation="1.55145" result="effect1_foregroundBlur_140_1329"/>
</filter>
<filter id="filter2_f_140_1329" x="51.5294" y="264.385" width="19.7843" height="19.4117" filterUnits="userSpaceOnUse" color-interpolation-filters="sRGB">
<feFlood flood-opacity="0" result="BackgroundImageFix"/>
<feBlend mode="normal" in="SourceGraphic" in2="BackgroundImageFix" result="shape"/>
<feGaussianBlur stdDeviation="0.775726" result="effect1_foregroundBlur_140_1329"/>
</filter>
</defs>
</svg>
